<svg width="1440" height="1043" viewBox="0 0 1440 1043" fill="none" xmlns="http://www.w3.org/2000/svg">
<path d="M-72.4118 88.5539V511.176H119.328C154.783 510.041 184.139 497.986 207.256 474.87C230.656 451.895 242.427 422.397 242.427 386.375V373.327H257.176V708.588H242.427V697.243C242.427 661.362 231.082 631.864 208.391 608.747C185.699 585.347 156.91 573.293 122.164 572.442H-72.4118V936.634C-72.4118 962.019 -63.3354 983.576 -45.1825 1001.3C-26.7459 1019.17 -4.90579 1027.97 20.0544 1027.97H37.64L39.3419 1042.71H-402V1027.97H-383.28C-358.32 1027.97 -337.047 1019.17 -319.177 1001.3C-301.025 983.576 -291.381 962.019 -290.246 936.634V127.696C-290.246 94.0849 -306.414 68.9828 -338.465 52.2481C-352.08 44.7317 -367.112 40.9026 -383.28 40.9026H-402V26.1534H153.932C183.714 26.1534 216.616 23.317 252.638 17.6442C288.518 11.6878 313.621 5.73137 328.086 0.0585938V245.69H313.904V230.941C313.904 188.253 301.424 154.216 276.464 128.831C251.787 103.161 218.176 89.6884 175.488 88.5539H-72.4118Z" fill="#071F38"/>
<path d="M480.71 1027.96C505.67 1027.96 526.943 1019.17 544.812 1001.3C562.965 983.573 572.609 962.017 573.743 936.631V130.529C572.609 105.569 562.965 84.4382 544.812 66.9944C526.943 49.6924 505.67 40.8996 480.71 40.8996H461.99V26.1504H903.332L901.63 40.8996H884.044C859.084 40.8996 837.244 49.6924 818.807 66.9944C800.654 84.4382 791.578 105.569 791.578 130.529V936.631C791.578 962.017 800.654 983.573 818.807 1001.3C837.244 1019.17 859.084 1027.96 884.044 1027.96H901.63L903.332 1042.71H461.99V1027.96H480.71Z" fill="#071F38"/>
<path d="M1041.21 1027.96C1066.17 1027.96 1087.45 1019.17 1105.32 1001.3C1123.47 983.573 1133.11 962.016 1134.25 936.631V132.231C1133.11 106.987 1123.47 85.4309 1105.32 67.5616C1087.45 49.8342 1066.17 40.8996 1041.21 40.8996H1022.49V26.1504H1463.84L1462.13 40.8996H1444.55C1419.59 40.8996 1397.75 49.8342 1379.31 67.5616C1361.16 85.4309 1352.08 106.987 1352.08 132.231V980.311H1542.12C1612.75 980.311 1672.03 960.173 1719.68 919.613C1767.61 878.769 1803.35 821.19 1826.89 746.593H1841.08L1774.7 1042.71H1022.49V1027.96H1041.21Z" fill="#071F38"/>
</svg>
