<svg width="1440" height="201" viewBox="0 0 1440 201" fill="none" xmlns="http://www.w3.org/2000/svg">
<g clip-path="url(#clip0_2040_1636)">
<path d="M1160 195.059C1190.38 195.059 1215 170.434 1215 140.059C1215 109.683 1190.38 85.0586 1160 85.0586C1129.62 85.0586 1105 109.683 1105 140.059C1105 170.434 1129.62 195.059 1160 195.059Z" fill="white"/>
<path d="M1167 114.008L1161.59 112.559L1157.04 129.567L1152.92 114.212L1147.51 115.661L1151.96 132.251L1140.89 121.178L1136.93 125.137L1149.07 137.282L1133.95 133.23L1132.5 138.638L1149.03 143.066C1148.84 142.25 1148.74 141.399 1148.74 140.526C1148.74 134.341 1153.75 129.328 1159.93 129.328C1166.12 129.328 1171.13 134.341 1171.13 140.526C1171.13 141.394 1171.03 142.239 1170.85 143.05L1185.86 147.074L1187.31 141.666L1170.72 137.221L1185.85 133.168L1184.4 127.76L1167.81 132.205L1178.88 121.133L1174.92 117.174L1162.94 129.151L1167 114.008Z" fill="#FF4405"/>
<path d="M1170.83 143.113C1170.37 145.073 1169.39 146.834 1168.04 148.245L1178.92 159.126L1182.88 155.167L1170.83 143.113Z" fill="#FF4405"/>
<path d="M1167.93 148.359C1166.57 149.747 1164.86 150.783 1162.93 151.317L1166.89 166.093L1172.3 164.644L1167.93 148.359Z" fill="#FF4405"/>
<path d="M1162.73 151.371C1161.84 151.601 1160.9 151.723 1159.93 151.723C1158.9 151.723 1157.9 151.583 1156.95 151.32L1152.98 166.11L1158.39 167.559L1162.73 151.371Z" fill="#FF4405"/>
<path d="M1156.76 151.266C1154.86 150.705 1153.17 149.656 1151.84 148.264L1140.93 159.171L1144.89 163.13L1156.76 151.266Z" fill="#FF4405"/>
<path d="M1151.75 148.167C1150.44 146.766 1149.49 145.029 1149.03 143.099L1133.97 147.136L1135.41 152.544L1151.75 148.167Z" fill="#FF4405"/>
<path d="M940 195.059C970.376 195.059 995 170.434 995 140.059C995 109.683 970.376 85.0586 940 85.0586C909.624 85.0586 885 109.683 885 140.059C885 170.434 909.624 195.059 940 195.059Z" fill="white"/>
<path fill-rule="evenodd" clip-rule="evenodd" d="M940 167.559C955.188 167.559 967.5 155.246 967.5 140.059C967.5 124.871 955.188 112.559 940 112.559C924.812 112.559 912.5 124.871 912.5 140.059C912.5 155.246 924.812 167.559 940 167.559ZM948.579 125.369C948.997 123.886 947.557 123.009 946.243 123.945L927.891 137.019C926.465 138.035 926.689 140.059 928.227 140.059H933.06V140.021H942.478L934.804 142.729L931.421 154.748C931.003 156.231 932.443 157.108 933.758 156.172L952.109 143.098C953.535 142.082 953.311 140.059 951.773 140.059H944.444L948.579 125.369Z" fill="#155EEF"/>
<path d="M720 195.059C750.376 195.059 775 170.434 775 140.059C775 109.683 750.376 85.0586 720 85.0586C689.624 85.0586 665 109.683 665 140.059C665 170.434 689.624 195.059 720 195.059Z" fill="white"/>
<path fill-rule="evenodd" clip-rule="evenodd" d="M698.399 146.387C699.646 147.627 699.646 149.638 698.399 150.878L698.335 150.942C697.088 152.182 695.066 152.182 693.818 150.942C692.571 149.701 692.571 147.691 693.818 146.451L693.882 146.387C695.13 145.147 697.152 145.147 698.399 146.387Z" fill="#A4BCFD"/>
<path fill-rule="evenodd" clip-rule="evenodd" d="M713.417 147.34C714.662 148.583 714.658 150.593 713.409 151.831L704.562 160.596C703.312 161.833 701.29 161.83 700.045 160.587C698.8 159.345 698.803 157.334 700.053 156.097L708.9 147.332C710.15 146.094 712.172 146.098 713.417 147.34Z" fill="#6172F3"/>
<path fill-rule="evenodd" clip-rule="evenodd" d="M725.423 162.43C726.402 160.971 728.385 160.576 729.853 161.549L730.044 161.676C731.512 162.649 731.909 164.621 730.93 166.08C729.952 167.539 727.969 167.933 726.501 166.961L726.309 166.833C724.842 165.861 724.445 163.889 725.423 162.43Z" fill="#A4BCFD"/>
<path fill-rule="evenodd" clip-rule="evenodd" d="M746.499 146.196C747.746 147.436 747.746 149.446 746.499 150.686L742.155 155.005C740.908 156.245 738.886 156.245 737.639 155.005C736.391 153.765 736.391 151.754 737.639 150.514L741.982 146.196C743.23 144.956 745.252 144.956 746.499 146.196Z" fill="#6172F3"/>
<path fill-rule="evenodd" clip-rule="evenodd" d="M746.563 130.223C747.81 131.463 747.81 133.474 746.563 134.714L714.464 166.627C713.217 167.867 711.194 167.867 709.947 166.627C708.7 165.387 708.7 163.377 709.947 162.137L742.046 130.223C743.293 128.983 745.316 128.983 746.563 130.223Z" fill="#3538CD"/>
<path fill-rule="evenodd" clip-rule="evenodd" d="M740.499 120.412C741.746 121.653 741.746 123.663 740.499 124.903L722.038 143.258C720.791 144.498 718.769 144.498 717.521 143.258C716.274 142.017 716.274 140.007 717.521 138.767L735.982 120.412C737.23 119.172 739.252 119.172 740.499 120.412Z" fill="#3538CD"/>
<path fill-rule="evenodd" clip-rule="evenodd" d="M730.752 114.186C732 115.426 732.002 117.436 730.755 118.677L707.024 142.303C705.778 143.544 703.755 143.545 702.507 142.306C701.259 141.066 701.258 139.056 702.504 137.815L726.235 114.189C727.482 112.948 729.504 112.947 730.752 114.186Z" fill="#3538CD"/>
<path fill-rule="evenodd" clip-rule="evenodd" d="M707.251 121.748C708.496 122.991 708.492 125.001 707.243 126.239L697.948 135.448C696.699 136.686 694.677 136.683 693.432 135.44C692.186 134.198 692.19 132.188 693.439 130.949L702.734 121.741C703.983 120.503 706.005 120.506 707.251 121.748Z" fill="#6172F3"/>
<path fill-rule="evenodd" clip-rule="evenodd" d="M712.94 112.559C714.704 112.559 716.134 113.98 716.134 115.734V116.052C716.134 117.805 714.704 119.227 712.94 119.227C711.176 119.227 709.746 117.805 709.746 116.052V115.734C709.746 113.98 711.176 112.559 712.94 112.559Z" fill="#A4BCFD"/>
<path d="M60 195.059C90.3757 195.059 115 170.434 115 140.059C115 109.683 90.3757 85.0586 60 85.0586C29.6243 85.0586 5 109.683 5 140.059C5 170.434 29.6243 195.059 60 195.059Z" fill="white"/>
<path d="M77.8792 124.312C77.3389 123.772 76.7987 123.232 76.2584 122.691C74.6376 120.962 72.9087 119.234 70.7476 118.153C68.2624 116.856 65.5611 117.181 62.8597 117.181C58.7537 117.181 48.4885 117.181 42.4375 117.181L46.5436 122.691C53.9993 122.691 65.6691 122.691 71.0718 122.691C73.3409 122.691 75.2859 123.123 77.1228 124.312C77.447 124.42 77.7711 124.42 77.8792 124.312Z" fill="#66C61C"/>
<path d="M82.4265 133.169C81.8862 132.629 81.3459 132.089 80.8056 131.549C79.1848 129.82 77.456 128.091 75.2949 127.01C72.8097 125.714 70.1083 126.038 67.407 126.038C63.8412 126.038 55.3049 126.038 49.2539 126.038L53.36 131.549C60.7076 131.549 70.7566 131.549 75.7271 131.549C77.9962 131.549 79.9412 131.981 81.7781 133.169C81.9943 133.278 82.2103 133.278 82.4265 133.169Z" fill="#4CA30D"/>
<path d="M87.4996 141.818C86.9594 141.278 86.4191 140.737 85.8788 140.197C84.258 138.468 82.5292 136.739 80.3681 135.659C77.8828 134.362 75.1815 134.686 72.4801 134.686C69.1305 134.686 61.7828 134.686 55.8398 134.686L59.9459 140.197C67.0774 140.197 76.154 140.197 80.6922 140.197C82.9614 140.197 84.9063 140.629 86.7433 141.818C87.0674 141.926 87.2835 142.034 87.4996 141.818Z" fill="#3B7C0F"/>
<path d="M42.0039 156.405C42.5442 156.945 43.0844 157.486 43.6247 158.026C45.2455 159.755 46.9744 161.484 49.1355 162.564C51.6207 163.861 54.3221 163.537 57.0234 163.537H77.4456L73.3396 158.026C65.8838 158.026 54.214 158.026 48.8113 158.026C46.5422 158.026 44.5972 157.594 42.7603 156.405C42.4361 156.297 42.22 156.297 42.0039 156.405Z" fill="#66C61C"/>
<path d="M37.4766 147.544C38.0168 148.084 38.5571 148.624 39.0974 149.165C40.7182 150.894 42.447 152.622 44.6081 153.703C47.0934 155 49.7947 154.675 52.4961 154.675H70.6491L66.5431 149.165C59.1954 149.165 49.1464 149.165 44.1759 149.165C41.9068 149.165 39.9618 148.732 38.1249 147.544C37.9088 147.436 37.6927 147.436 37.4766 147.544Z" fill="#4CA30D"/>
<path d="M32.5 138.794C33.0403 139.334 33.5805 139.874 34.1208 140.414C35.7416 142.143 37.4705 143.872 39.6316 144.953C42.1168 146.249 44.8181 145.925 47.5195 145.925H64.1598L60.0537 140.414C52.9222 140.414 43.8457 140.414 39.3074 140.414C37.0383 140.414 35.0933 139.982 33.2564 138.794C32.9322 138.686 32.7161 138.686 32.5 138.794Z" fill="#3B7C0F"/>
<path d="M280 195.059C310.376 195.059 335 170.434 335 140.059C335 109.683 310.376 85.0586 280 85.0586C249.624 85.0586 225 109.683 225 140.059C225 170.434 249.624 195.059 280 195.059Z" fill="white"/>
<path d="M290.536 112.559H269.464L252.5 129.522V150.595L269.464 167.559H290.536L307.5 150.595V129.522L290.536 112.559ZM272.38 150.86L261.512 139.992L272.38 129.125C276.488 125.016 283.247 125.016 287.355 129.125L298.223 139.992L287.355 150.86C283.247 154.968 276.62 154.968 272.38 150.86Z" fill="#F82B60"/>
<path d="M500 195.059C530.376 195.059 555 170.434 555 140.059C555 109.683 530.376 85.0586 500 85.0586C469.624 85.0586 445 109.683 445 140.059C445 170.434 469.624 195.059 500 195.059Z" fill="white"/>
<path d="M518.528 140.061C514.085 145.025 507.628 148.149 500.442 148.149C493.255 148.149 486.799 145.025 482.355 140.061C486.799 135.097 493.255 131.973 500.442 131.973C507.628 131.973 514.085 135.097 518.528 140.061Z" fill="#1FA7DF"/>
<path fill-rule="evenodd" clip-rule="evenodd" d="M476.176 156.239C476.176 142.838 487.039 131.975 500.44 131.975C493.254 131.975 486.797 135.099 482.354 140.063C486.797 145.027 493.254 148.151 500.441 148.151C507.627 148.151 514.084 145.027 518.527 140.063C522.369 144.356 524.705 150.025 524.705 156.239V165.406C524.705 166.597 523.739 167.563 522.548 167.563H478.333C477.141 167.563 476.176 166.597 476.176 165.406V156.239Z" fill="#0ACF83"/>
<path fill-rule="evenodd" clip-rule="evenodd" d="M491.339 146.382C487.874 144.979 484.807 142.799 482.354 140.059C486.797 135.094 493.254 131.97 500.441 131.97C507.627 131.97 514.084 135.094 518.527 140.059C522.369 135.766 524.705 130.097 524.705 123.882V114.715C524.705 113.524 523.739 112.559 522.548 112.559H478.333C477.141 112.559 476.176 113.524 476.176 114.715V123.882C476.176 134.064 482.448 142.782 491.339 146.382Z" fill="#1ABCFE"/>
<path d="M1380 195.059C1410.38 195.059 1435 170.434 1435 140.059C1435 109.683 1410.38 85.0586 1380 85.0586C1349.62 85.0586 1325 109.683 1325 140.059C1325 170.434 1349.62 195.059 1380 195.059Z" fill="white"/>
<path d="M1390.54 112.559H1369.46L1352.5 129.522V150.595L1369.46 167.559H1390.54L1407.5 150.595V129.522L1390.54 112.559ZM1372.38 150.86L1361.51 139.992L1372.38 129.125C1376.49 125.016 1383.25 125.016 1387.36 129.125L1398.22 139.992L1387.36 150.86C1383.25 154.968 1376.62 154.968 1372.38 150.86Z" fill="#F82B60"/>
</g>
<g clip-path="url(#clip1_2040_1636)">
<path d="M-9.47168 80.0586C12.6197 80.0586 30.5283 62.15 30.5283 40.0586C30.5283 17.9672 12.6197 0.0585938 -9.47168 0.0585938C-31.5631 0.0585938 -49.4717 17.9672 -49.4717 40.0586C-49.4717 62.15 -31.5631 80.0586 -9.47168 80.0586Z" fill="white"/>
<path d="M-18.1868 23.1071L-13.6936 39.876V21.4399C-13.3373 21.3568 -12.9772 21.2836 -12.6136 21.2206V39.8778L-7.55978 21.017C-7.19558 21.0499 -6.83438 21.0931 -6.47628 21.1461L-11.5708 40.1588L-1.44428 22.6193C-1.11438 22.7677 -0.789484 22.9252 -0.469784 23.0914L-10.634 40.6963L3.87672 26.1856C4.13832 26.433 4.39292 26.6877 4.64032 26.9493L-9.87248 41.4622L7.73452 31.2967C7.90071 31.6164 8.05812 31.9414 8.20642 32.2713L-9.32868 42.3953L9.67882 37.3022C9.73182 37.6603 9.77501 38.0215 9.80791 38.3857L-9.05258 43.4394H9.60402C9.54102 43.803 9.46782 44.1631 9.38462 44.5194H-9.05548L7.71672 49.0135C7.54442 49.3433 7.36292 49.6675 7.17242 49.9857L-9.33028 45.5639L4.45322 53.5218C4.19232 53.7901 3.92361 54.0509 3.64742 54.3036L-9.86908 46.4999L0.358616 56.7276C0.0351162 56.9166 -0.294386 57.0964 -0.629585 57.2667L-10.6339 47.2624L-4.07898 58.6159C-4.43788 58.7173 -4.80098 58.8086 -5.16808 58.8894L-11.5701 47.8008L-8.48348 59.3204C-8.75858 59.3321 -9.03518 59.338 -9.31318 59.338C-9.40808 59.338 -9.50278 59.3373 -9.59739 59.3359L-12.6136 48.0794V59.0554C-12.9772 58.9924 -13.3373 58.9192 -13.6936 58.8361V48.0812L-16.353 58.0064C-16.6922 57.8726 -17.0267 57.7295 -17.3561 57.5773L-14.7372 47.8032L-19.6535 56.3185C-19.9579 56.1236 -20.2564 55.9203 -20.5487 55.709L-15.671 47.2606L-22.5019 54.0915C-22.7635 53.8441 -23.0182 53.5895 -23.2656 53.3279L-16.4369 46.4992L-24.8828 51.3754C-25.0942 51.0831 -25.2975 50.7847 -25.4924 50.4803L-16.9731 45.5617L-26.752 48.1819C-26.9042 47.8525 -27.0474 47.518 -27.1812 47.1788L-17.256 44.5194H-28.011C-28.0942 44.1631 -28.1674 43.803 -28.2304 43.4394H-17.259L-28.5111 40.4244C-28.5125 40.3291 -28.5132 40.2336 -28.5132 40.138C-28.5132 39.8607 -28.5073 39.5848 -28.4957 39.3104L-16.9746 42.3975L-28.065 35.9945C-27.9842 35.6274 -27.8929 35.2642 -27.7915 34.9053L-16.4335 41.4629L-26.4419 31.4544C-26.2717 31.1192 -26.0918 30.7896 -25.9028 30.4661L-15.6709 40.6981L-23.4778 27.1761C-23.225 26.9 -22.9642 26.6314 -22.6959 26.3705L-14.7365 40.1564L-19.1591 23.6513C-18.8408 23.4608 -18.5166 23.2793 -18.1868 23.1071Z" fill="#2A9D8F"/>
<path d="M199.528 80.0586C221.62 80.0586 239.528 62.15 239.528 40.0586C239.528 17.9672 221.62 0.0585938 199.528 0.0585938C177.437 0.0585938 159.528 17.9672 159.528 40.0586C159.528 62.15 177.437 80.0586 199.528 80.0586Z" fill="white"/>
<path d="M193.813 48.6296C201.703 48.6296 208.099 42.2338 208.099 34.3442C208.099 33.45 208.017 32.575 207.859 31.7264C207.011 31.5692 206.136 31.4871 205.242 31.4871C197.352 31.4871 190.956 37.8829 190.956 45.7725C190.956 46.6667 191.038 47.5417 191.196 48.3903C192.044 48.5475 192.919 48.6296 193.813 48.6296Z" fill="#175CD3"/>
<path fill-rule="evenodd" clip-rule="evenodd" d="M191.196 48.3904C184.556 47.1608 179.528 41.3397 179.528 34.3442C179.528 26.4545 185.924 20.0587 193.813 20.0587C200.809 20.0587 206.63 25.087 207.86 31.7264C207.011 31.5693 206.136 31.4871 205.242 31.4871C197.352 31.4871 190.956 37.8829 190.956 45.7726C190.956 46.6667 191.039 47.5417 191.196 48.3904Z" fill="#1570EF"/>
<path fill-rule="evenodd" clip-rule="evenodd" d="M193.814 48.6303C201.704 48.6303 208.1 42.2345 208.1 34.3448C208.1 33.4507 208.018 32.5757 207.86 31.7271C214.5 32.9566 219.528 38.7777 219.528 45.7732C219.528 53.6629 213.132 60.0587 205.243 60.0587C198.247 60.0587 192.426 55.0304 191.196 48.391C192.045 48.5482 192.92 48.6303 193.814 48.6303Z" fill="#2E90FA"/>
<path d="M408.528 80.0586C430.62 80.0586 448.528 62.15 448.528 40.0586C448.528 17.9672 430.62 0.0585938 408.528 0.0585938C386.437 0.0585938 368.528 17.9672 368.528 40.0586C368.528 62.15 386.437 80.0586 408.528 80.0586Z" fill="white"/>
<path d="M423.212 28.5446L407.38 32.7875C404.713 33.5023 401.971 36.2441 401.256 38.9114L397.013 54.7439C396.298 57.4112 397.881 58.994 400.548 58.2792L416.381 54.0362C419.048 53.3214 421.79 50.5797 422.505 47.9124L426.748 32.0799C427.463 29.4126 425.88 27.8298 423.212 28.5446Z" fill="#2E90FA"/>
<path d="M416.745 22.0797L400.913 26.3226C398.246 27.0374 395.504 29.7792 394.789 32.4465L390.546 48.279C389.831 50.9463 391.414 52.5291 394.081 51.8143L409.914 47.5713C412.581 46.8565 415.323 44.1148 416.038 41.4475L420.281 25.615C420.995 22.9477 419.413 21.3649 416.745 22.0797Z" fill="#EFD515"/>
<path d="M617.528 80.0586C639.62 80.0586 657.528 62.15 657.528 40.0586C657.528 17.9672 639.62 0.0585938 617.528 0.0585938C595.437 0.0585938 577.528 17.9672 577.528 40.0586C577.528 62.15 595.437 80.0586 617.528 80.0586Z" fill="white"/>
<path d="M609.874 21.581C612.301 20.576 614.902 20.0586 617.528 20.0586V30.0586C616.215 30.0586 614.914 30.3172 613.701 30.8199C612.488 31.3224 611.385 32.0589 610.457 32.9875C609.528 33.9161 608.792 35.0185 608.289 36.2317C607.787 37.445 607.528 38.7453 607.528 40.0586H597.528C597.528 37.4322 598.045 34.8314 599.05 32.4049C600.056 29.9784 601.529 27.7737 603.386 25.9164C605.243 24.0593 607.448 22.5861 609.874 21.581Z" fill="#155EEF"/>
<path d="M597.528 40.0586C597.528 42.685 598.045 45.2858 599.05 47.7123C600.056 50.1388 601.529 52.3435 603.386 54.2008C605.243 56.0579 607.448 57.5311 609.874 58.5362C612.301 59.5412 614.902 60.0586 617.528 60.0586C620.154 60.0586 622.755 59.5412 625.182 58.5362C627.608 57.5311 629.813 56.0579 631.67 54.2008C633.527 52.3435 635 50.1388 636.006 47.7123C637.011 45.2858 637.528 42.685 637.528 40.0586H627.528C627.528 41.3719 627.269 42.6722 626.767 43.8855C626.264 45.0987 625.528 46.2011 624.599 47.1297C623.671 48.0583 622.568 48.7948 621.355 49.2973C620.142 49.8 618.841 50.0586 617.528 50.0586C616.215 50.0586 614.914 49.8 613.701 49.2973C612.488 48.7948 611.385 48.0583 610.457 47.1297C609.528 46.2011 608.792 45.0987 608.289 43.8855C607.787 42.6722 607.528 41.3719 607.528 40.0586H597.528Z" fill="#84ADFF"/>
<path d="M617.53 33.6942C614.015 33.6942 611.166 36.5434 611.166 40.0579H623.893C623.893 36.5434 621.044 33.6942 617.53 33.6942Z" fill="#84ADFF"/>
<path d="M617.53 46.4223C614.015 46.4223 611.166 43.5731 611.166 40.0586H623.893C623.893 43.5731 621.044 46.4223 617.53 46.4223Z" fill="#155EEF"/>
<path d="M826.528 80.0586C848.62 80.0586 866.528 62.15 866.528 40.0586C866.528 17.9672 848.62 0.0585938 826.528 0.0585938C804.437 0.0585938 786.528 17.9672 786.528 40.0586C786.528 62.15 804.437 80.0586 826.528 80.0586Z" fill="white"/>
<path d="M828.309 42.1803C827.847 36.5808 823.156 32.1804 817.437 32.1804C811.412 32.1804 806.528 37.0646 806.528 43.0894C806.528 49.1143 811.412 53.9984 817.437 53.9984H833.801V42.1803H828.309Z" fill="#528BFF"/>
<path d="M832.891 53.9985C840.422 53.9985 846.528 47.8933 846.528 40.3622C846.528 32.8311 840.422 26.7259 832.891 26.7259C825.36 26.7259 819.255 32.8311 819.255 40.3622C819.255 47.8933 825.36 53.9985 832.891 53.9985Z" fill="#7839EE"/>
</g>
<g clip-path="url(#clip2_2040_1636)">
<path d="M1026.82 80.0586C1048.91 80.0586 1066.82 62.15 1066.82 40.0586C1066.82 17.9672 1048.91 0.0585938 1026.82 0.0585938C1004.73 0.0585938 986.823 17.9672 986.823 40.0586C986.823 62.15 1004.73 80.0586 1026.82 80.0586Z" fill="white"/>
<path d="M1018.11 23.1071L1022.6 39.876V21.4399C1022.96 21.3568 1023.32 21.2836 1023.68 21.2206V39.8778L1028.73 21.017C1029.1 21.0499 1029.46 21.0931 1029.82 21.1461L1024.72 40.1588L1034.85 22.6193C1035.18 22.7677 1035.5 22.9252 1035.82 23.0914L1025.66 40.6963L1040.17 26.1856C1040.43 26.433 1040.69 26.6877 1040.93 26.9493L1026.42 41.4622L1044.03 31.2967C1044.2 31.6164 1044.35 31.9414 1044.5 32.2713L1026.97 42.3953L1045.97 37.3022C1046.03 37.6603 1046.07 38.0215 1046.1 38.3857L1027.24 43.4394H1045.9C1045.84 43.803 1045.76 44.1631 1045.68 44.5194H1027.24L1044.01 49.0135C1043.84 49.3433 1043.66 49.6675 1043.47 49.9857L1026.96 45.5639L1040.75 53.5218C1040.49 53.7901 1040.22 54.0509 1039.94 54.3036L1026.43 46.4999L1036.65 56.7276C1036.33 56.9166 1036 57.0964 1035.66 57.2667L1025.66 47.2624L1032.22 58.6159C1031.86 58.7173 1031.49 58.8086 1031.13 58.8894L1024.72 47.8008L1027.81 59.3204C1027.54 59.3321 1027.26 59.338 1026.98 59.338C1026.89 59.338 1026.79 59.3373 1026.7 59.3359L1023.68 48.0794V59.0554C1023.32 58.9924 1022.96 58.9192 1022.6 58.8361V48.0812L1019.94 58.0064C1019.6 57.8726 1019.27 57.7295 1018.94 57.5773L1021.56 47.8032L1016.64 56.3185C1016.34 56.1236 1016.04 55.9203 1015.75 55.709L1020.62 47.2606L1013.79 54.0915C1013.53 53.8441 1013.28 53.5895 1013.03 53.3279L1019.86 46.4992L1011.41 51.3754C1011.2 51.0831 1011 50.7847 1010.8 50.4803L1019.32 45.5617L1009.54 48.1819C1009.39 47.8525 1009.25 47.518 1009.11 47.1788L1019.04 44.5194H1008.28C1008.2 44.1631 1008.13 43.803 1008.06 43.4394H1019.04L1007.78 40.4244C1007.78 40.3291 1007.78 40.2336 1007.78 40.138C1007.78 39.8607 1007.79 39.5848 1007.8 39.3104L1019.32 42.3975L1008.23 35.9945C1008.31 35.6274 1008.4 35.2642 1008.5 34.9053L1019.86 41.4629L1009.85 31.4544C1010.02 31.1192 1010.2 30.7896 1010.39 30.4661L1020.62 40.6981L1012.82 27.1761C1013.07 26.9 1013.33 26.6314 1013.6 26.3705L1021.56 40.1564L1017.14 23.6513C1017.45 23.4608 1017.78 23.2793 1018.11 23.1071Z" fill="#2A9D8F"/>
<path d="M1235.82 80.0586C1257.91 80.0586 1275.82 62.15 1275.82 40.0586C1275.82 17.9672 1257.91 0.0585938 1235.82 0.0585938C1213.73 0.0585938 1195.82 17.9672 1195.82 40.0586C1195.82 62.15 1213.73 80.0586 1235.82 80.0586Z" fill="white"/>
<path d="M1230.11 48.6296C1238 48.6296 1244.39 42.2338 1244.39 34.3442C1244.39 33.45 1244.31 32.575 1244.15 31.7264C1243.31 31.5692 1242.43 31.4871 1241.54 31.4871C1233.65 31.4871 1227.25 37.8829 1227.25 45.7725C1227.25 46.6667 1227.33 47.5417 1227.49 48.3903C1228.34 48.5475 1229.21 48.6296 1230.11 48.6296Z" fill="#175CD3"/>
<path fill-rule="evenodd" clip-rule="evenodd" d="M1227.49 48.3904C1220.85 47.1608 1215.82 41.3397 1215.82 34.3442C1215.82 26.4545 1222.22 20.0587 1230.11 20.0587C1237.1 20.0587 1242.92 25.087 1244.15 31.7264C1243.31 31.5693 1242.43 31.4871 1241.54 31.4871C1233.65 31.4871 1227.25 37.8829 1227.25 45.7726C1227.25 46.6667 1227.33 47.5417 1227.49 48.3904Z" fill="#1570EF"/>
<path fill-rule="evenodd" clip-rule="evenodd" d="M1230.11 48.6303C1238 48.6303 1244.39 42.2345 1244.39 34.3448C1244.39 33.4507 1244.31 32.5757 1244.15 31.7271C1250.79 32.9566 1255.82 38.7777 1255.82 45.7732C1255.82 53.6629 1249.43 60.0587 1241.54 60.0587C1234.54 60.0587 1228.72 55.0304 1227.49 48.391C1228.34 48.5482 1229.21 48.6303 1230.11 48.6303Z" fill="#2E90FA"/>
<path d="M1444.82 80.0586C1466.91 80.0586 1484.82 62.15 1484.82 40.0586C1484.82 17.9672 1466.91 0.0585938 1444.82 0.0585938C1422.73 0.0585938 1404.82 17.9672 1404.82 40.0586C1404.82 62.15 1422.73 80.0586 1444.82 80.0586Z" fill="white"/>
<path d="M1459.51 28.5446L1443.67 32.7875C1441.01 33.5023 1438.27 36.2441 1437.55 38.9114L1433.31 54.7439C1432.59 57.4112 1434.18 58.994 1436.84 58.2792L1452.68 54.0362C1455.34 53.3214 1458.08 50.5797 1458.8 47.9124L1463.04 32.0799C1463.76 29.4126 1462.17 27.8298 1459.51 28.5446Z" fill="#2E90FA"/>
<path d="M1453.04 22.0797L1437.21 26.3226C1434.54 27.0374 1431.8 29.7792 1431.08 32.4465L1426.84 48.279C1426.13 50.9463 1427.71 52.5291 1430.38 51.8143L1446.21 47.5713C1448.88 46.8565 1451.62 44.1148 1452.33 41.4475L1456.58 25.615C1457.29 22.9477 1455.71 21.3649 1453.04 22.0797Z" fill="#EFD515"/>
</g>
<rect width="170" height="200" transform="translate(0 0.0585938)" fill="url(#paint0_linear_2040_1636)"/>
<rect width="170" height="200" transform="translate(1270 0.0585938)" fill="url(#paint1_linear_2040_1636)"/>
<rect width="75.0001" height="1440" transform="translate(1440 125.549) rotate(90)" fill="url(#paint2_linear_2040_1636)"/>
<defs>
<linearGradient id="paint0_linear_2040_1636" x1="170" y1="100" x2="0" y2="100" gradientUnits="userSpaceOnUse">
<stop stop-color="#0A2540" stop-opacity="0"/>
<stop offset="1" stop-color="#0A2540"/>
</linearGradient>
<linearGradient id="paint1_linear_2040_1636" x1="0" y1="100" x2="170" y2="100" gradientUnits="userSpaceOnUse">
<stop stop-color="#0A2540" stop-opacity="0"/>
<stop offset="1" stop-color="#0A2540"/>
</linearGradient>
<linearGradient id="paint2_linear_2040_1636" x1="0" y1="720" x2="75.0001" y2="720" gradientUnits="userSpaceOnUse">
<stop stop-color="#0A2540" stop-opacity="0"/>
<stop offset="1" stop-color="#0A2540"/>
</linearGradient>
<clipPath id="clip0_2040_1636">
<rect width="1430" height="110" fill="white" transform="translate(5 85.0586)"/>
</clipPath>
<clipPath id="clip1_2040_1636">
<rect width="916" height="80" fill="white" transform="translate(-49.4717 0.0585938)"/>
</clipPath>
<clipPath id="clip2_2040_1636">
<rect width="916" height="80" fill="white" transform="translate(986.823 0.0585938)"/>
</clipPath>
</defs>
</svg>
