<svg width="1057" height="491" viewBox="0 0 1057 491" fill="none" xmlns="http://www.w3.org/2000/svg">
<path d="M155.594 41.6543V240.58H245.845C262.534 240.046 276.352 234.372 287.233 223.491C298.247 212.677 303.788 198.793 303.788 181.837V175.696H310.73V333.502H303.788V328.161C303.788 311.273 298.447 297.388 287.767 286.507C277.086 275.493 263.535 269.818 247.18 269.418H155.594V440.842C155.594 452.79 159.867 462.937 168.411 471.281C177.089 479.692 187.369 483.831 199.118 483.831H207.395L208.196 490.773H0.45874V483.831H9.27023C21.0189 483.831 31.0319 479.692 39.4429 471.281C47.9874 462.937 52.5266 452.79 53.0607 440.842V60.0783C53.0607 44.2577 45.4507 32.4423 30.3644 24.5654C23.956 21.0274 16.8802 19.2251 9.27023 19.2251H0.45874V12.2827H262.133C276.152 12.2827 291.638 10.9476 308.594 8.27746C325.483 5.4738 337.298 2.67015 344.107 0V115.617H337.431V108.675C337.431 88.5822 331.557 72.5613 319.808 60.6124C308.193 48.53 292.373 42.1883 272.28 41.6543H155.594Z" fill="#071F38"/>
<path d="M415.946 483.829C427.695 483.829 437.708 479.691 446.119 471.28C454.663 462.936 459.203 452.789 459.737 440.84V61.412C459.203 49.6633 454.663 39.717 446.119 31.5063C437.708 23.3624 427.695 19.2236 415.946 19.2236H407.135V12.2812H614.872L614.071 19.2236H605.794C594.045 19.2236 583.765 23.3624 575.087 31.5063C566.543 39.717 562.27 49.6633 562.27 61.412V440.84C562.27 452.789 566.543 462.936 575.087 471.28C583.765 479.691 594.045 483.829 605.794 483.829H614.071L614.872 490.772H407.135V483.829H415.946Z" fill="#071F38"/>
<path d="M679.773 483.829C691.522 483.829 701.535 479.691 709.946 471.28C718.49 462.936 723.029 452.789 723.563 440.84V62.213C723.029 50.3309 718.49 40.1843 709.946 31.7733C701.535 23.4291 691.522 19.2236 679.773 19.2236H670.961V12.2812H878.699L877.898 19.2236H869.62C857.872 19.2236 847.592 23.4291 838.914 31.7733C830.369 40.1843 826.097 50.3309 826.097 62.213V461.4H915.547C948.79 461.4 976.693 451.921 999.123 432.83C1021.69 413.605 1038.51 386.503 1049.59 351.39H1056.26L1025.02 490.772H670.961V483.829H679.773Z" fill="#071F38"/>
</svg>
